<svg xmlns="http://www.w3.org/2000/svg" xmlns:xlink="http://www.w3.org/1999/xlink" width="1em" height="1em" fill="currentColor" viewBox="0 0 573 573"><g fill="none" fill-rule="evenodd" stroke="none" stroke-width="1"><g fill-rule="nonzero"><g><g fill="#7EBAE4" transform="translate(-44, 0) translate(-0, 0) translate(179.2478, 344.2665) rotate(60) translate(-179.2478, -344.2665)translate(39.4675, 217.9911)"><polygon points="247.986 0 165.324 143.176 0 143.176 31.574 197.863 133.75 197.863 165.324 252.551 279.561 54.687"/></g><g fill="#5277C3" transform="translate(-44, 0) translate(-0, 0) translate(204.7907, 184.1915) rotate(120) translate(-204.7907, -184.1915)translate(65.0104, 57.9162)"><polygon points="247.986 0 165.324 143.176 0 143.176 31.574 197.863 133.75 197.863 165.324 252.551 279.561 54.687"/></g><g fill="#7EBAE4" transform="translate(-44, 0) translate(-0, 0) translate(356.1917, 126.2754) rotate(180) translate(-356.1917, -126.2754)translate(216.4114, 0)"><polygon points="247.986 0 165.324 143.176 0 143.176 31.574 197.863 133.75 197.863 165.324 252.551 279.561 54.687"/></g><g fill="#5277C3" transform="translate(-44, 0) translate(-0, 0) translate(482.0485, 228.4337) rotate(-120) translate(-482.0485, -228.4337)translate(342.2683, 102.1584)"><polygon points="247.986 0 165.324 143.176 0 143.176 31.574 197.863 133.75 197.863 165.324 252.551 279.561 54.687"/></g><g fill="#7EBAE4" transform="translate(-44, 0) translate(-0, 0) translate(456.5059, 388.5084) rotate(-60) translate(-456.5059, -388.5084)translate(316.7256, 262.233)"><polygon points="247.986 0 165.324 143.176 0 143.176 31.574 197.863 133.75 197.863 165.324 252.551 279.561 54.687"/></g><g fill="#5277C3" transform="translate(-44, 0) translate(-0, 0) translate(165.3253, 320.1492)"><polygon points="247.986 0 165.324 143.176 0 143.176 31.574 197.863 133.75 197.863 165.324 252.551 279.561 54.687"/></g></g></g></g></svg>