<svg xmlns="http://www.w3.org/2000/svg" xmlns:xlink="http://www.w3.org/1999/xlink" width="43" height="25" version="1.1" viewBox="0 0 43 25"><title>wails</title><defs><linearGradient id="linearGradient-1" x1="-.2%" x2="99.8%" y1="50%" y2="50%"><stop offset="0%" stop-color="#E33232"/><stop offset="100%" stop-color="#6B000D"/></linearGradient><linearGradient id="linearGradient-2" x1="57.461%" x2="105.911%" y1="50%" y2="50%"><stop offset="0%" stop-color="#E33232"/><stop offset="100%" stop-color="#6B000D"/></linearGradient><linearGradient id="linearGradient-3" x1="37.15%" x2="137.15%" y1="50%" y2="50%"><stop offset="0%" stop-color="#E33232"/><stop offset="100%" stop-color="#6B000D"/></linearGradient><linearGradient id="linearGradient-4" x1="112.55%" x2="32.36%" y1="91.396%" y2="31.65%"><stop offset="0%" stop-color="#E33232"/><stop offset="100%" stop-color="#6B000D"/></linearGradient><linearGradient id="linearGradient-5" x1="11.95%" x2="111.95%" y1="50%" y2="50%"><stop offset="0%" stop-color="#E33232"/><stop offset="100%" stop-color="#6B000D"/></linearGradient><linearGradient id="linearGradient-6" x1="25.85%" x2="125.85%" y1="50%" y2="50%"><stop offset="0%" stop-color="#E33232"/><stop offset="100%" stop-color="#6B000D"/></linearGradient></defs><g id="Page-1" fill="none" fill-rule="evenodd" stroke="none" stroke-width="1"><g id="wails" transform="translate(-2, -16)"><polygon id="Path" fill="url(#linearGradient-1)" fill-rule="nonzero" points="11.949 28.433 2.112 30.524 3.855 28.665" transform="translate(7.0309, 29.4785) scale(-1, 1) rotate(1.5717) translate(-7.0309, -29.4785)"/><polygon id="Path" fill="url(#linearGradient-2)" fill-rule="nonzero" points="45.134 28.695 37.204 36.992 27.923 35.591 37.938 32.797 30.758 31.713 40.773 28.92 33.602 27.836 43.224 25.151" transform="translate(36.5284, 31.0714) scale(-1, 1) rotate(-8.5836) translate(-36.5284, -31.0714)"/><polygon id="Path" fill="url(#linearGradient-3)" fill-rule="nonzero" points="31.563 36.221 28.869 35.975 27.515 43.563 20.004 32.912 28.823 30.11 33.533 30.11" transform="translate(26.7683, 36.8365) scale(-1, 1) rotate(-54.8194) translate(-26.7683, -36.8365)"/><polygon id="Path" fill="url(#linearGradient-4)" fill-rule="nonzero" points="21.995 16.403 26.109 16.403 27.441 19.422 28.033 25.194" transform="translate(25.014, 20.7986) scale(-1, 1) rotate(128.5441) translate(-25.014, -20.7986)"/><polygon id="Path" fill="url(#linearGradient-5)" fill-rule="nonzero" points="38.871 20.875 39.552 22.562 33.07 18.892" transform="translate(36.3109, 20.727) scale(-1, 1) rotate(-14.7678) translate(-36.3109, -20.727)"/><polygon id="Path" fill="#FFF" points="23.106 22.847 24.992 25.615 22.554 23.739" transform="translate(23.7731, 24.2307) rotate(-70.4489) translate(-23.7731, -24.2307)"/><polygon id="Path" fill="url(#linearGradient-6)" fill-rule="nonzero" points="19.702 25.033 20.437 24.298 35.707 25.458 32.034 28.435 22.872 27.623 19.702 30.213 29.869 32.494 26.429 35.277 17.305 32.185 13.787 26.27 6.906 14.711" transform="translate(21.3064, 24.9941) scale(-1, 1) rotate(-6.2086) translate(-21.3064, -24.9941)"/></g></g></svg>